<svg xmlns="http://www.w3.org/2000/svg" width="780" height="440" viewBox="0 0 780 440" fill="none"><rect width="780" height="440" fill="#026661"></rect><circle cx="398.828" cy="216.03" r="62.4513" fill="#083F3F" stroke="black"></circle><path d="M129.909 143.484C129.909 154.401 121.058 163.252 110.141 163.252C99.2239 163.252 90.3737 154.401 90.3737 143.484C90.3737 132.567 99.2239 123.717 110.141 123.717C121.058 123.717 129.909 132.567 129.909 143.484Z" fill="#98E58E" stroke="#040404" stroke-width="1.5"></path><mask id="path-3-inside-1_2211_302" fill="white"><path d="M117.904 146.858C117.904 147.878 117.703 148.887 117.313 149.829C116.923 150.771 116.351 151.627 115.63 152.347C114.909 153.068 114.054 153.64 113.112 154.03C112.17 154.42 111.161 154.621 110.141 154.621C109.122 154.621 108.112 154.42 107.17 154.03C106.229 153.64 105.373 153.068 104.652 152.347C103.931 151.627 103.359 150.771 102.969 149.829C102.579 148.887 102.378 147.878 102.378 146.858L110.141 146.858H117.904Z"></path></mask><path d="M117.904 146.858C117.904 147.878 117.703 148.887 117.313 149.829C116.923 150.771 116.351 151.627 115.63 152.347C114.909 153.068 114.054 153.64 113.112 154.03C112.17 154.42 111.161 154.621 110.141 154.621C109.122 154.621 108.112 154.42 107.17 154.03C106.229 153.64 105.373 153.068 104.652 152.347C103.931 151.627 103.359 150.771 102.969 149.829C102.579 148.887 102.378 147.878 102.378 146.858L110.141 146.858H117.904Z" stroke="#040404" stroke-width="3" mask="url(#path-3-inside-1_2211_302)"></path><path d="M120.4 141.126C120.129 141.126 119.909 140.906 119.909 140.635C119.909 139.208 118.748 138.048 117.322 138.048C115.896 138.048 114.736 139.208 114.736 140.635C114.736 140.906 114.515 141.126 114.245 141.126C113.974 141.126 113.754 140.906 113.754 140.635C113.754 138.667 115.354 137.066 117.322 137.066C119.29 137.066 120.891 138.667 120.891 140.635C120.891 140.906 120.671 141.126 120.4 141.126Z" fill="#040404"></path><path d="M106.038 141.126C105.767 141.126 105.547 140.906 105.547 140.635C105.547 139.208 104.387 138.048 102.96 138.048C101.534 138.048 100.373 139.208 100.373 140.635C100.373 140.906 100.153 141.126 99.8822 141.126C99.6114 141.126 99.3912 140.906 99.3912 140.635C99.3912 138.667 100.992 137.066 102.96 137.066C104.928 137.066 106.529 138.667 106.529 140.635C106.529 140.906 106.308 141.126 106.038 141.126Z" fill="#040404"></path><rect x="153.854" y="134.64" width="144.583" height="17.688" rx="8.84398" fill="#083F3F" stroke="#040404" stroke-width="1.5"></rect><rect x="153.854" y="134.64" width="115.224" height="17.688" rx="8.84398" fill="#98E58E" stroke="#040404" stroke-width="1.5"></rect><rect x="153.854" y="205.675" width="144.583" height="17.688" rx="8.84398" fill="#083F3F" stroke="#040404" stroke-width="1.5"></rect><rect x="153.854" y="205.675" width="84.3903" height="17.688" rx="8.84398" fill="#FFE16E" stroke="#040404" stroke-width="1.5"></rect><rect x="153.854" y="276.71" width="144.583" height="17.688" rx="8.84398" fill="#083F3F" stroke="#040404" stroke-width="1.5"></rect><rect x="153.854" y="276.71" width="51.958" height="17.688" rx="8.84398" fill="#A1C2F8" stroke="#040404" stroke-width="1.5"></rect><path d="M129.909 285.554C129.909 296.471 121.058 305.321 110.141 305.321C99.2239 305.321 90.3737 296.471 90.3737 285.554C90.3737 274.637 99.2239 265.786 110.141 265.786C121.058 265.786 129.909 274.637 129.909 285.554Z" fill="#A1C2F8" stroke="#040404" stroke-width="1.5"></path><path d="M103.072 294.948C103.072 294.16 103.248 293.378 103.592 292.644C103.937 291.909 104.445 291.235 105.093 290.663C105.74 290.091 106.514 289.634 107.372 289.32C108.23 289.006 109.152 288.844 110.085 288.844C111.018 288.844 111.94 289.006 112.798 289.32C113.656 289.634 114.43 290.091 115.078 290.663C115.725 291.235 116.233 291.909 116.578 292.644C116.922 293.378 117.098 294.16 117.098 294.948" stroke="#040404" stroke-width="1.5"></path><circle cx="102.683" cy="281.594" r="1.81607" fill="#040404"></circle><circle cx="117.855" cy="281.594" r="1.81607" fill="#040404"></circle><path d="M129.909 214.519C129.909 225.436 121.058 234.287 110.141 234.287C99.2239 234.287 90.3737 225.436 90.3737 214.519C90.3737 203.602 99.2239 194.752 110.141 194.752C121.058 194.752 129.909 203.602 129.909 214.519Z" fill="#FFE16E" stroke="#040404" stroke-width="1.5"></path><circle cx="102.683" cy="210.594" r="1.81607" fill="#040404"></circle><circle cx="117.855" cy="210.594" r="1.81607" fill="#040404"></circle><path d="M101.64 221.39H118.91" stroke="#040404" stroke-width="1.5"></path><path d="M426.849 209.598C426.77 194.121 414.159 181.644 398.682 181.722C383.205 181.801 370.727 194.412 370.806 209.889C370.855 219.191 375.433 227.4 382.434 232.464C382.44 232.464 389.246 238.069 389.27 243.254L408.803 243.151C408.803 243.151 407.856 237.571 415.458 232.288C422.404 227.158 426.897 218.894 426.849 209.598Z" fill="#7DEAD5" stroke="#040404" stroke-width="1.5" stroke-miterlimit="10"></path><path d="M395.209 243.223L395.057 213.557L395.039 210.587C395.027 208.541 393.357 206.89 391.311 206.896H391.062C389.016 206.908 387.364 208.578 387.37 210.624C387.383 212.67 389.052 214.322 391.098 214.316L406.922 214.231C408.968 214.218 410.619 212.549 410.613 210.502C410.601 208.456 408.931 206.805 406.885 206.811C404.839 206.823 403.187 208.493 403.193 210.539L403.363 243.175" stroke="#040404" stroke-width="1.5" stroke-miterlimit="10"></path><path d="M407.199 243.155L391.145 243.239C389.16 243.25 387.559 244.867 387.569 246.853L387.574 247.703C387.584 249.688 389.202 251.289 391.187 251.278L407.241 251.194C409.226 251.184 410.827 249.566 410.816 247.581L410.812 246.731C410.802 244.746 409.184 243.145 407.199 243.155Z" fill="white" stroke="#040404" stroke-width="1.5" stroke-linecap="round" stroke-linejoin="round"></path><path d="M407.241 251.193L391.188 251.277C389.203 251.288 387.602 252.905 387.612 254.891L387.617 255.741C387.627 257.726 389.245 259.327 391.23 259.316L407.283 259.232C409.269 259.222 410.869 257.604 410.859 255.619L410.855 254.769C410.844 252.784 409.227 251.183 407.241 251.193Z" fill="white" stroke="#040404" stroke-width="1.5" stroke-linecap="round" stroke-linejoin="round"></path><path d="M398.809 175.297L398.779 169.875" stroke="#040404" stroke-width="1.5" stroke-miterlimit="10"></path><path d="M378.76 181.156L374.904 177.337" stroke="#040404" stroke-width="1.5" stroke-miterlimit="10"></path><path d="M420.073 180.938L423.886 177.083" stroke="#040404" stroke-width="1.5" stroke-miterlimit="10"></path><path d="M402.016 259.846C402.022 261.461 400.716 262.178 399.101 262.184C397.486 262.19 396.169 261.48 396.163 259.859" fill="white"></path><path d="M402.016 259.846C402.022 261.461 400.716 262.178 399.101 262.184C397.486 262.19 396.169 261.48 396.163 259.859" stroke="#040404" stroke-width="1.5" stroke-linecap="round" stroke-linejoin="round"></path><path d="M690.568 162.695H498.468V283.195H690.568V162.695Z" fill="#083F3F" stroke="#040404" stroke-width="1.5" stroke-miterlimit="10"></path><path d="M553.468 249.795H536.368V265.895H553.468V249.795Z" fill="white" stroke="#040404" stroke-width="1.5" stroke-miterlimit="10"></path><path d="M578.468 234.995H561.368V265.895H578.468V234.995Z" fill="#A1C2F8" stroke="#040404" stroke-width="1.5" stroke-miterlimit="10"></path><path d="M603.468 219.095H586.368V265.895H603.468V219.095Z" fill="#FFE16E" stroke="#040404" stroke-width="1.5" stroke-miterlimit="10"></path><path d="M628.468 199.095H611.368V265.895H628.468V199.095Z" fill="#98E58E" stroke="#040404" stroke-width="1.5" stroke-miterlimit="10"></path><path d="M653.468 177.795H636.368V265.895H653.468V177.795Z" fill="#98E58E" stroke="#040404" stroke-width="1.5" stroke-miterlimit="10"></path><path d="M671.068 266.095H514.668" stroke="#040404" stroke-width="1.5" stroke-miterlimit="10"></path></svg>